<svg id="Layer_1" data-name="Layer 1" xmlns="http://www.w3.org/2000/svg" viewBox="0 0 36 36"><defs><style>.cls-1{fill:#fff;}</style></defs><title>search-btn</title><circle class="cls-1" cx="18" cy="18" r="18"/><path d="M35.76,19.38c-.28-.31-7.08-7.73-15.59-7.73S4.86,19.07,4.57,19.38a.94.94,0,0,0,0,1.24c.29.31,7.08,7.73,15.6,7.73s15.31-7.42,15.59-7.73A.92.92,0,0,0,35.76,19.38ZM20.17,26.49A6.49,6.49,0,1,1,26.66,20,6.5,6.5,0,0,1,20.17,26.49Z" transform="translate(-2 -2)"/><path d="M21.1,18.14a2.76,2.76,0,0,1,1.16-2.25,4.47,4.47,0,0,0-2.09-.53,4.64,4.64,0,1,0,4.56,5.42A2.77,2.77,0,0,1,21.1,18.14Z" transform="translate(-2 -2)"/></svg>